<?xml version="1.0" standalone="no"?>
<!DOCTYPE svg PUBLIC "-//W3C//DTD SVG 20010904//EN"
 "http://www.w3.org/TR/2001/REC-SVG-20010904/DTD/svg10.dtd">
<svg version="1.0" xmlns="http://www.w3.org/2000/svg"
 width="1100.000000pt" height="1100.000000pt" viewBox="0 0 1100.000000 1100.000000"
 preserveAspectRatio="xMidYMid meet">
<g transform="translate(0.000000,1100.000000) scale(0.100000,-0.100000)"
fill="#000000" stroke="none">
<path d="M5219 10736 c-2 -2 -53 -6 -114 -10 -60 -3 -123 -8 -140 -10 -16 -2
-57 -7 -90 -10 -130 -15 -151 -17 -165 -21 -8 -2 -35 -7 -60 -10 -56 -8 -282
-53 -335 -67 -22 -5 -47 -11 -55 -13 -47 -9 -266 -69 -328 -90 -7 -3 -14 -5
-17 -5 -3 0 -49 -17 -102 -36 -54 -20 -102 -37 -108 -38 -5 -2 -23 -8 -40 -15
-16 -7 -74 -30 -128 -52 -203 -82 -476 -218 -665 -334 -10 -6 -39 -24 -67 -40
-82 -48 -282 -185 -370 -252 -6 -5 -28 -21 -50 -38 -22 -16 -45 -34 -51 -40
-6 -5 -23 -19 -38 -30 -15 -11 -38 -29 -50 -40 -13 -11 -45 -38 -71 -60 -27
-22 -63 -55 -81 -72 -19 -18 -35 -33 -38 -33 -2 0 -46 -40 -97 -90 -51 -49
-97 -90 -102 -90 -6 0 -8 -2 -5 -5 2 -3 -25 -36 -61 -73 -36 -38 -95 -101
-131 -141 -36 -40 -71 -79 -78 -86 -6 -8 -12 -16 -12 -19 0 -3 -14 -19 -31
-36 -18 -16 -29 -30 -25 -30 3 0 -2 -8 -12 -18 -35 -37 -72 -82 -67 -82 5 0
-3 -10 -55 -67 -14 -15 -24 -29 -22 -31 3 -3 -31 -51 -56 -78 -7 -8 -10 -14
-6 -14 4 0 -3 -8 -14 -19 -12 -10 -19 -21 -15 -25 3 -3 2 -6 -4 -6 -6 0 -18
-16 -27 -35 -9 -19 -21 -35 -26 -35 -6 0 -10 -6 -10 -13 0 -8 -11 -27 -24 -42
-14 -16 -23 -32 -20 -37 3 -4 0 -8 -6 -8 -6 0 -8 -4 -5 -10 3 -5 -2 -10 -11
-10 -10 0 -14 -3 -11 -6 4 -4 -2 -19 -13 -34 -11 -16 -20 -33 -20 -39 0 -6 -4
-11 -10 -11 -5 0 -10 -7 -10 -15 0 -8 -5 -15 -11 -15 -5 0 -7 -4 -4 -10 3 -5
1 -10 -6 -10 -7 0 -10 -3 -6 -6 3 -4 1 -12 -6 -20 -23 -26 -33 -39 -33 -44 -1
-19 -25 -70 -34 -70 -6 0 -9 -4 -6 -9 4 -5 3 -11 -1 -13 -5 -1 -21 -31 -38
-65 -16 -35 -34 -63 -38 -63 -5 0 -5 -4 -2 -10 3 -5 1 -10 -6 -10 -7 0 -10 -3
-6 -6 3 -3 -7 -30 -23 -59 -16 -29 -26 -56 -23 -59 4 -3 0 -6 -7 -6 -7 0 -10
-3 -7 -7 4 -3 -3 -21 -14 -40 -11 -18 -18 -33 -14 -33 3 0 -4 -14 -16 -32 -13
-17 -18 -29 -13 -25 5 3 -3 -20 -18 -51 -15 -31 -28 -64 -28 -74 0 -9 -5 -18
-11 -20 -5 -2 -12 -15 -13 -28 -4 -32 -16 -60 -25 -60 -4 0 -8 -8 -9 -17 -4
-45 -9 -62 -21 -77 -8 -9 -11 -16 -7 -16 4 0 -2 -17 -13 -39 -11 -21 -18 -41
-15 -44 3 -3 0 -15 -6 -27 -11 -21 -21 -54 -22 -77 -1 -7 -6 -13 -11 -13 -6 0
-8 -3 -4 -6 3 -4 0 -22 -8 -40 -8 -19 -14 -37 -15 -39 0 -3 -1 -7 -1 -10 -1
-3 -2 -13 -3 -22 -1 -10 -5 -24 -9 -30 -5 -7 -5 -17 -2 -23 3 -6 2 -10 -3 -10
-5 0 -9 -6 -10 -12 -3 -26 -10 -63 -12 -63 -2 0 -10 -33 -15 -60 -2 -11 -4
-21 -5 -22 -4 -5 -6 -15 -15 -68 -4 -27 -11 -54 -15 -60 -4 -5 -6 -18 -5 -27
2 -10 -1 -18 -6 -18 -4 0 -6 -6 -3 -14 3 -8 1 -17 -5 -21 -8 -4 -8 -12 -1 -25
5 -10 6 -20 1 -22 -8 -3 -21 -72 -24 -130 -1 -16 -6 -28 -10 -28 -5 0 -5 -9
-2 -20 3 -11 3 -20 -2 -20 -4 0 -9 -17 -9 -38 -3 -70 -12 -140 -19 -153 -6 -8
-4 -10 6 -4 11 7 12 6 3 -6 -6 -8 -10 -24 -9 -36 1 -13 -3 -23 -8 -23 -5 0 -4
-7 3 -15 10 -12 10 -15 -1 -15 -11 0 -11 -2 1 -10 9 -6 10 -10 3 -10 -7 0 -10
-10 -7 -24 2 -14 -1 -28 -7 -32 -8 -5 -7 -9 2 -14 9 -6 10 -13 3 -22 -6 -7 -9
-39 -9 -70 1 -35 -3 -58 -9 -58 -7 0 -8 -3 -1 -8 11 -8 16 -42 6 -42 -6 0 -6
-178 1 -432 2 -71 5 -128 8 -128 3 0 6 -24 7 -52 2 -90 9 -164 17 -176 4 -7 2
-12 -5 -12 -9 0 -9 -3 0 -14 6 -7 9 -21 5 -30 -4 -10 -1 -16 7 -16 11 0 11 -3
-1 -10 -8 -5 -10 -10 -5 -10 6 0 10 -10 10 -22 1 -13 4 -36 8 -51 6 -22 5 -27
-5 -21 -10 6 -10 4 0 -9 8 -9 11 -20 8 -26 -4 -5 1 -17 10 -25 8 -9 11 -16 6
-16 -10 0 -11 -42 -1 -50 7 -5 20 -78 22 -117 1 -13 4 -23 7 -23 3 0 6 -15 5
-32 0 -18 4 -36 8 -39 5 -3 10 -21 12 -40 2 -19 4 -34 5 -34 1 0 4 -13 14 -65
2 -14 5 -25 6 -25 2 0 8 -22 13 -47 2 -10 6 -20 9 -24 4 -3 4 -12 1 -20 -3 -8
0 -14 7 -14 6 0 8 -5 5 -10 -4 -6 -2 -17 4 -24 6 -7 9 -21 5 -30 -3 -9 -1 -16
4 -16 6 0 9 -9 7 -20 -2 -11 0 -20 4 -20 4 0 8 -7 9 -15 1 -8 3 -22 4 -30 1
-8 6 -15 11 -15 5 0 7 -7 4 -15 -4 -8 -2 -17 4 -20 5 -4 7 -10 4 -15 -3 -5 2
-16 11 -24 8 -9 11 -16 5 -16 -5 0 -3 -13 5 -29 8 -17 17 -39 19 -50 2 -11 9
-29 15 -40 6 -12 8 -21 5 -21 -3 0 2 -11 11 -25 9 -14 13 -25 9 -25 -4 0 -2
-6 4 -13 6 -8 8 -17 4 -20 -3 -4 -2 -7 4 -7 5 0 10 -6 11 -12 2 -24 8 -43 17
-58 5 -8 11 -19 12 -25 9 -37 29 -85 35 -85 5 0 8 -9 8 -19 0 -11 5 -23 10
-26 6 -3 10 -15 10 -26 0 -10 5 -19 11 -19 6 0 9 -7 5 -15 -3 -8 -1 -15 4 -15
7 0 15 -16 26 -50 10 -36 28 -70 36 -70 6 0 8 -6 5 -14 -3 -8 1 -20 8 -26 8
-7 12 -16 9 -21 -3 -5 -1 -9 5 -9 5 0 15 -15 21 -34 6 -19 15 -36 21 -38 5 -2
11 -14 14 -28 3 -14 9 -26 15 -28 6 -2 8 -8 4 -13 -3 -5 0 -9 6 -9 6 0 8 -4 5
-10 -3 -5 -2 -10 4 -10 9 0 23 -30 18 -40 -1 -3 8 -16 20 -30 13 -13 23 -28
23 -33 0 -5 9 -21 19 -36 11 -15 21 -34 23 -42 2 -8 10 -21 18 -29 8 -8 26
-35 39 -60 14 -25 30 -50 35 -57 6 -6 25 -34 41 -62 17 -28 33 -51 38 -51 4 0
7 -6 7 -12 0 -11 13 -30 60 -85 5 -7 15 -24 22 -38 6 -14 14 -25 18 -25 4 0
20 -20 36 -45 15 -25 32 -45 36 -45 4 0 8 -4 8 -10 0 -6 8 -19 18 -30 9 -10
27 -31 40 -44 12 -14 22 -28 22 -32 0 -4 14 -20 30 -36 16 -15 30 -31 30 -34
0 -3 6 -11 13 -18 50 -52 87 -97 87 -105 0 -5 9 -13 20 -16 11 -3 20 -10 20
-15 0 -5 24 -34 54 -64 30 -30 52 -57 49 -60 -4 -3 0 -6 8 -6 8 0 23 -14 34
-30 11 -16 23 -30 26 -30 3 0 42 -35 87 -78 44 -42 106 -99 138 -127 32 -27
74 -64 93 -81 20 -17 70 -57 111 -90 41 -32 79 -63 85 -67 5 -5 44 -33 85 -62
41 -30 80 -58 85 -62 23 -18 197 -133 200 -133 3 0 35 -20 72 -44 60 -38 112
-68 218 -125 17 -9 38 -22 48 -30 9 -8 17 -11 17 -7 0 3 17 -4 37 -17 21 -13
67 -36 103 -51 36 -16 67 -32 70 -35 3 -3 19 -11 35 -18 17 -6 93 -38 170 -71
189 -80 467 -173 685 -228 77 -19 68 -17 195 -44 112 -24 106 -23 230 -44 85
-15 120 -19 225 -31 25 -3 59 -8 75 -10 177 -27 808 -27 1015 0 19 3 58 7 85
10 52 5 122 14 165 21 14 2 54 9 90 15 36 5 83 14 105 19 22 5 57 11 77 14 92
14 527 134 628 173 8 3 20 7 25 8 14 4 232 90 280 111 22 10 42 18 45 19 31 5
452 218 489 246 13 11 28 19 32 19 13 0 253 151 257 161 2 5 8 9 14 9 10 0
226 150 251 174 6 6 28 23 47 36 19 13 37 27 40 30 3 3 28 23 55 44 153 121
510 458 497 470 -3 3 2 6 11 6 9 0 17 3 17 8 0 4 15 23 33 42 17 19 61 69 97
110 36 41 68 77 73 78 4 2 7 8 7 13 0 6 11 20 25 33 14 13 25 26 25 30 0 4 12
19 26 34 14 15 32 39 40 55 8 15 18 27 22 27 4 0 16 15 27 33 10 17 26 37 34
44 9 7 12 13 7 13 -5 0 1 8 12 19 12 10 22 23 22 30 0 6 5 11 11 11 5 0 8 4 4
9 -3 6 0 13 8 18 7 4 28 33 47 63 19 30 37 57 41 60 4 3 19 27 33 54 14 27 26
45 26 40 0 -10 31 44 52 89 7 15 16 27 21 27 4 0 5 5 2 10 -3 6 -2 10 3 10 5
0 22 26 38 57 15 32 30 60 34 63 7 5 22 43 20 49 -1 2 2 7 7 10 14 10 65 111
56 111 -4 0 -3 4 3 8 12 9 64 107 64 123 0 6 6 17 14 25 8 8 13 23 11 34 -2
11 0 18 6 15 8 -6 13 8 10 28 -1 4 6 10 14 13 8 3 12 10 9 15 -3 5 2 18 10 30
8 12 12 28 9 35 -3 8 0 14 5 14 9 0 25 31 27 52 0 3 3 10 8 14 4 4 7 16 7 26
0 10 5 18 11 18 5 0 7 4 4 10 -3 5 1 20 10 33 8 13 12 27 8 30 -3 4 -1 7 5 7
6 0 9 9 7 20 -2 11 1 20 7 20 5 0 8 7 4 15 -3 8 -2 15 3 15 8 0 21 28 26 60 2
8 11 35 20 60 17 45 27 84 28 107 0 7 7 15 16 18 13 5 14 7 1 15 -11 7 -12 10
-2 10 7 0 11 4 7 9 -3 5 -1 12 4 16 5 3 8 14 6 25 -2 11 0 20 6 20 5 0 8 3 8
8 -4 18 14 92 22 92 5 0 7 11 5 25 -3 14 0 25 6 25 6 0 9 3 5 6 -3 3 -2 17 3
29 6 16 5 25 -3 29 -7 3 -6 5 4 5 8 1 16 11 17 24 2 29 9 72 12 72 1 0 3 9 5
20 8 48 16 91 20 110 9 41 18 101 19 123 1 12 3 22 6 22 4 0 11 52 14 118 0
12 4 22 7 22 5 0 7 11 11 108 1 23 6 42 10 42 5 0 4 8 -1 19 -6 10 -7 21 -4
25 10 10 13 36 27 254 1 24 -2 45 -6 48 -5 3 -5 11 0 17 10 12 12 497 2 497
-3 0 -6 30 -7 68 -3 133 -7 171 -16 165 -5 -3 -4 4 2 16 7 12 8 21 2 21 -5 0
-8 12 -5 26 3 14 1 23 -3 21 -4 -3 -8 6 -8 19 0 13 4 24 8 24 5 0 5 6 0 13 -7
11 -13 50 -14 90 0 9 -3 17 -7 17 -4 0 -6 18 -6 40 1 22 -1 40 -5 40 -4 0 -7
10 -8 23 -4 74 -7 97 -14 97 -4 0 -6 9 -4 20 2 11 0 20 -4 20 -5 0 -7 11 -6
25 2 14 -1 25 -7 25 -6 0 -5 6 2 15 10 12 10 15 0 15 -7 0 -10 6 -7 14 3 8 3
17 -1 20 -3 4 -7 12 -8 19 -11 65 -17 83 -27 89 -9 6 -9 8 0 8 9 0 9 10 -2 39
-7 22 -16 54 -19 72 -2 17 -11 36 -18 40 -10 7 -10 9 0 9 9 0 9 5 3 18 -11 19
-25 73 -23 85 1 4 -3 7 -9 7 -5 0 -8 4 -5 8 3 4 -6 38 -19 75 -13 37 -21 67
-18 67 3 0 0 6 -6 13 -6 8 -12 22 -14 33 -8 42 -21 79 -28 84 -5 3 -11 17 -13
30 -2 14 -5 26 -7 28 -1 1 -3 7 -4 12 -1 6 -4 12 -5 15 -1 3 -3 8 -4 13 -1 4
-7 16 -13 27 -6 11 -12 25 -13 30 -6 24 -12 42 -26 66 -7 14 -11 29 -7 33 3 3
1 6 -6 6 -7 0 -10 4 -6 9 3 5 -2 17 -11 25 -8 9 -13 16 -10 16 5 0 -13 42 -73
173 -17 37 -31 72 -31 78 0 6 -4 7 -10 4 -6 -4 -10 5 -10 19 0 14 -4 26 -10
26 -5 0 -10 7 -10 15 0 8 -4 15 -10 15 -5 0 -9 3 -8 8 2 10 -23 64 -40 85 -9
9 -12 17 -8 17 4 0 -2 13 -13 29 -12 16 -21 34 -21 41 0 6 -4 8 -10 5 -5 -3
-10 3 -10 14 0 11 -7 26 -15 34 -8 8 -11 17 -8 21 4 3 1 6 -6 6 -7 0 -9 5 -6
10 3 6 2 10 -4 10 -6 0 -13 11 -17 25 -3 14 -10 25 -15 25 -5 0 -9 5 -9 10 0
11 -39 71 -53 81 -5 3 -7 8 -6 10 2 2 -11 25 -29 51 -18 26 -32 51 -32 56 0 6
-7 13 -16 16 -8 3 -12 10 -9 16 3 5 3 10 -2 10 -4 0 -19 17 -33 38 -28 41 -32
47 -60 81 -11 13 -20 28 -20 32 0 4 -11 20 -25 34 -14 14 -22 25 -18 25 4 0 3
4 -3 8 -6 4 -39 42 -73 85 -88 111 -91 114 -147 173 -28 30 -48 54 -45 54 6 0
-18 25 -193 200 -74 74 -157 155 -186 180 -28 25 -63 56 -78 70 -34 30 -111
95 -172 143 -25 20 -53 43 -62 52 -10 8 -22 15 -27 15 -5 0 -11 3 -13 8 -1 4
-37 32 -78 62 -41 29 -81 60 -88 67 -7 7 -19 13 -27 13 -7 0 -15 4 -17 9 -14
36 -674 411 -724 411 -8 0 -14 5 -14 10 0 6 -4 10 -9 10 -5 0 -31 10 -58 22
-26 12 -50 22 -53 23 -3 1 -23 9 -45 19 -69 30 -295 112 -415 151 -305 98
-692 178 -1020 210 -30 3 -80 8 -110 11 -65 6 -625 15 -631 10z"/>
</g>
</svg>
